<?xml version="1.0" encoding="utf-8"?>
<!-- Generator: Adobe Illustrator 23.0.3, SVG Export Plug-In . SVG Version: 6.00 Build 0)  -->
<svg version="1.1" id="Layer_1" xmlns="http://www.w3.org/2000/svg" xmlns:xlink="http://www.w3.org/1999/xlink" x="0px" y="0px"
	 viewBox="0 0 1389.5 346.4" style="enable-background:new 0 0 1389.5 346.4;" xml:space="preserve">
<style type="text/css">
	.st0{fill:#131313;}
	.st1{fill:#FFFFFF;}
	.st2{fill:#141414;}
	.st3{fill:#6D9F21;}
</style>
<g id="Shape_1_copy_xA0_Image_1_">
</g>
<g>
	<path class="st0" d="M24.4,125.2c0.6,0,2.3,4.1,3.1,4.1c0.3,0,0.8-0.3,1.9-1.1c2.5-1.9,6-3,9.7-3c8.2,0,17.6,5.8,17.6,32.7v34.4
		c0,25-10.4,31.6-18.7,31.6c-3.8,0-6.9-1.3-9.4-3.5c-0.8-0.8-1.1-1.1-1.4-1.1c-0.2,0-0.5,0.3-0.5,1.3v26.5c0,0.8-0.6,1.6-1.4,1.6
		H3.8c-0.8,0-1.4-0.6-1.4-1.4V126.8c0-0.8,0.8-1.4,1.4-1.4h20.8v-0.2L24.4,125.2L24.4,125.2z M26.6,193.8c0,2.5,1.3,4.3,3.1,4.3
		c1.4,0,2.2-1.4,2.2-3.3v-41.4c0-0.8,0-3-2.2-3c-0.6,0-1.4,0.3-1.9,0.6c-0.8,0.8-1.3,1.9-1.3,3.1L26.6,193.8L26.6,193.8L26.6,193.8
		L26.6,193.8z"/>
	<path class="st0" d="M62.1,126.6c0-0.8,0.3-1.3,1-1.3h23.3c1,0,2.2,5.3,3,5.3c0.3,0,0.6-0.3,1-1.1c1.6-3.9,5.3-4.1,10.4-4.1
		c0.5,0,1,0.5,1,1.1v23.6c0,0.6-0.3,1.1-1.1,1.1c-8.4,0-11.7,4.4-11.7,17.8v53.5c0,0.8-0.6,1.4-1.4,1.4H63.3c-0.6,0-1.1-0.5-1.1-1.3
		v-96.1L62.1,126.6L62.1,126.6L62.1,126.6z"/>
	<path class="st0" d="M106.3,150.8c0-15.1,11.3-25.5,28.3-25.5s28.3,10.2,28.3,26.4v46.8c0,15.3-11.3,25.7-28.3,25.7
		c-16.8-0.1-28.3-10.6-28.3-25.8V150.8z M132,194.1c0,2,0.8,3.3,2.7,3.3s2.7-1.3,2.7-3.3v-39.2c0-1.9-1-3.3-2.7-3.3
		c-1.9,0-2.7,1.4-2.7,3.3V194.1z"/>
	<path class="st0" d="M204.9,152.6c0-0.5-0.6-1.1-1.1-1.1c-7.2,0-8,0-8,1.1v70c0,0.8-0.8,1.4-1.4,1.4h-22.2c-0.8,0-1.3-0.8-1.3-1.4
		v-69.9c0-1.1-0.6-1.3-2.3-1.3c-1.9,0-2.3-0.5-2.3-1.3V127c0-1,0.5-1.9,2.7-1.9c1.1,0,2-0.3,2-0.8v-10.2c0-10.4,10.4-16.2,25.7-16.2
		h18.6c7.2,0,14.6,5.1,14.6,12.6c0,8.5,0,9.6-2,9.6h-20.1c-1.9,0-3-1.3-3-3.3c0-4.3-2-4.9-4.1-4.9c-2.7,0-5.1,1.9-5.1,4.7v6.3
		c0,1.6,1.1,2.3,2.5,2.3h31.6c1,0,1.9,0.6,1.9,1.4v96.2c0,0.6-0.5,1.3-1.1,1.3h-24.2c-0.6,0-1.3-0.8-1.3-1.4L204.9,152.6
		L204.9,152.6L204.9,152.6z"/>
	<path class="st0" d="M237.2,153.8c0-14.5,9.9-28.5,27.4-28.5s28.2,15.1,28.2,30.2c0,7.9,0,8.9-2,9.1l-21.6,1.1c-1.1,0.2-2-1-2-2
		v-12.2c0-2-1.3-3.3-2.7-3.3c-1.1,0-2.7,1.3-2.7,3.3v43.9c0,2,1.4,3.3,2.8,3.3c1.1,0,2.5-1.3,2.5-3.3v-10.5c0-1,0.6-1.6,1.9-1.6
		l21.9,1.1c1.1,0.2,1.9,1,1.9,2c0,11.2,0,37.9-28.8,37.9c-15.9,0-26.7-12.4-26.7-31.5L237.2,153.8L237.2,153.8L237.2,153.8
		L237.2,153.8z"/>
	<path class="st0" d="M325,222.8c0,0.6-0.5,1.3-1.1,1.3h-24.2c-0.6,0-1.3-0.8-1.3-1.4v-95.4c0-1.1,0.6-2,1.6-2h23.3
		c1,0,1.6,0.8,1.6,1.6L325,222.8L325,222.8L325,222.8z M323.3,118.3c0,1-0.6,1.9-1.6,1.9h-20.1c-0.8,0-1.6-1-1.6-2V97.8
		c0-0.8,0.8-1.9,1.6-1.9h20.3c0.6,0,1.4,0.5,1.4,1.3L323.3,118.3L323.3,118.3z"/>
	<path class="st0" d="M330.6,151.9c0-19.5,15-26.7,28.3-26.7c18.6,0,29.3,14.3,29.3,30.5v10.1c0,0.8-0.6,1.4-1.4,1.4h-27.5
		c-0.6,0-1,0.5-1,1.3v25.8c0,2.7,1.1,3.6,2.7,3.6c1.1,0,2.7-1,2.7-3.5v-10.1c0-0.6,0.5-1.3,1.4-1.3l21.2,1.1c1,0.2,1.6,0.8,1.6,1.9
		v10.5c0,21.1-14.5,27.4-29.7,27.4c-17.6,0-27.7-12.6-27.7-31.3v-40.7H330.6z M358.3,157.6c0,0.5,0.5,0.8,1,0.8c3.8,0,4.3,0,4.3-0.8
		c0-10.5-0.2-11.7-2.8-11.7c-1.3,0-2.5,1-2.5,3.5V157.6L358.3,157.6z"/>
	<path class="st0" d="M395.2,224.1c-0.6,0-1.3-0.6-1.3-1.6v-96.1c0-0.6,0.5-1.1,1.1-1.1h20.6c1.1,0,2.5,6.9,3.1,6.9
		c0.2,0,0.5-0.2,1.1-1c3-3.8,6-6,12.9-6c8,0,16.2,6.3,16.2,17.5v80.5c0,0.5-0.3,0.8-0.8,0.8h-22.7c-0.6,0-1.1-0.5-1.1-1.1v-67.3
		c0-2.5-1.3-3.3-2.7-3.3c-1.3,0-2.7,0.8-2.7,3.3v67.5c0,0.6-0.3,1-1.1,1L395.2,224.1L395.2,224.1z"/>
	<path class="st0" d="M457.8,152.6c0-0.6-0.3-1.1-1-1.1c-3.5,0-3.8,0-3.8-1.1v-24.1c0-0.5,0.3-1,0.6-1c3.8,0,4.1,0,4.1-1.1v-14.5
		c0-0.6,0.5-1.1,1.1-1.1h23.7c1.6,0,1.6,0.3,1.6,1.4v13.8c0,1,0.5,1.4,1.3,1.4c5.1,0,5.6,0,5.6,1.1v23.9c0,0.6-0.5,1.1-1.1,1.1
		c-5.1,0-5.8,0-5.8,1.3V196c0,0.6,0.5,1.3,1,1.3c5.8,0,6.4,0,6.4,1c0,9.4,0,25.7-16.8,25.7c-9.9,0-17.1-6.1-17.1-25.8v-45.6H457.8
		L457.8,152.6z"/>
</g>
<g>
	<path class="st0" d="M936.2,223.5c-0.8,0-2.4-4.1-3-4.1c-0.3,0-0.8,0.3-1.9,1.1c-2.2,1.8-5.7,2.9-9.4,2.9
		c-8.1,0-17.4-5.7-17.4-32.3v-34c0-24.7,10-31.2,18.6-31.2c3.8,0,6.8,1.1,9.1,3.4c0.8,0.8,1.3,1.1,1.6,1.1c0.2,0,0.5-0.3,0.5-1.3
		v-28.5c0-0.8,0.6-1.6,1.4-1.6h21.1c0.8,0,1.4,0.5,1.4,1.3V222c0,0.8-0.8,1.4-1.4,1.4h-20.6L936.2,223.5L936.2,223.5L936.2,223.5z
		 M934.1,155.8c0-2.4-1.4-4.3-3-4.3c-1.4,0-2.1,1.4-2.1,3v41c0,1,0,3,2.1,3c0.6,0,1.3-0.3,1.8-0.8c0.6-0.6,1.3-1.6,1.3-3
		L934.1,155.8L934.1,155.8L934.1,155.8L934.1,155.8z"/>
	<path class="st0" d="M963.9,152.3c0-19.2,14.8-26.4,28-26.4c18.4,0,28.9,14.2,28.9,30.1v9.9c0,0.8-0.6,1.4-1.4,1.4h-27.2
		c-0.6,0-1,0.5-1,1.3v25.5c0,2.6,1.1,3.5,2.6,3.5c1.1,0,2.6-1,2.6-3.4v-9.9c0-0.6,0.5-1.3,1.4-1.3l21,1.1c1,0.2,1.6,0.8,1.6,1.8
		v10.6c0,20.8-14.3,27-29.3,27c-17.4,0-27.3-12.4-27.3-30.9L963.9,152.3L963.9,152.3L963.9,152.3z M991.2,157.8c0,0.5,0.5,0.8,1,0.8
		c3.8,0,4.3,0,4.3-0.8c0-10.4-0.2-11.6-2.7-11.6c-1.3,0-2.4,1-2.4,3.4v8.1L991.2,157.8L991.2,157.8L991.2,157.8z"/>
	<path class="st0" d="M1057.1,159.7c-0.8,0.2-1.3-0.5-1.3-1.4c0-5.1-1.1-7.6-3.5-7.6c-1.3,0-2.4,1.1-2.4,2.9
		c0,3.4,4.9,8.3,13.8,16.4c9.6,8.4,13.7,15.4,13.7,25.9c0,14-7,27.7-26.9,27.7c-10.8,0-25.5-6-25.5-33.4c0-0.8,0.5-1.4,1.1-1.4
		l17.7-1.1c0.6,0,1.1,0.5,1.3,1.1c0.3,5.9,2.2,9.4,4.8,9.4c1.4,0,2.2-1.1,2.2-2.7c0-3.9-6.2-10-15.3-17.7
		c-6.7-5.4-12.5-14.2-12.5-26.4c0-14.5,11.6-25.3,26.1-25.3c19.5,0,27.8,15.1,27.8,31.2c0,0.8-0.8,1.4-1.6,1.4L1057.1,159.7z"/>
	<path class="st0" d="M1109.6,222.1c0,0.6-0.5,1.3-1.1,1.3h-23.9c-0.6,0-1.3-0.8-1.3-1.4v-94.2c0-1.1,0.6-1.9,1.6-1.9h23.1
		c1,0,1.6,0.8,1.6,1.6L1109.6,222.1L1109.6,222.1z M1107.9,119c0,1-0.6,1.8-1.6,1.8h-19.9c-0.8,0-1.6-1-1.6-1.9V98.7
		c0-0.8,0.8-1.8,1.6-1.8h20c0.6,0,1.4,0.5,1.4,1.3L1107.9,119L1107.9,119L1107.9,119z"/>
	<path class="st0" d="M1115,148.6c0-13.5,9.9-22.8,24-22.8c4.8,0,8.6,0.8,11.4,2.4c1-1.8,5.4-7.2,8.9-7.2c4.1,0,8.4,8.4,8.4,9.4
		c0,1.6-7.5,4.3-8.4,5.2c1.9,2.6,3.4,7.8,3.4,13.5v24.2c0,13.5-9.7,22.8-23.7,22.8c-1.9,0-5.1-0.3-6.7-0.8c-0.6,1.1-1,1.9-1,2.6
		c0,1.9,2.1,3,8.8,4.1c17.4,2.4,25,8.8,25,24c0,14.3-10.8,21.6-25,21.6c-18.2,0-26.4-9.4-26.4-18.7c0-5.6,2.1-9.6,5.2-11.9
		c-2.2-1.9-3.9-5.7-3.9-11.1c0-5.9,4.1-12.7,8-15.6c-4.4-3.8-8.1-10.7-8.1-17.2L1115,148.6L1115,148.6z M1131,221.8
		c-0.6,0.5-1,1.4-1,2.2c0,4.4,7.5,4.6,8.8,4.6c2.7,0,6.5-0.6,6.5-3.4c0-1-0.8-1.8-2.4-1.8C1139,223.3,1134.1,222.6,1131,221.8z
		 M1136.3,170.4c0,2.1,1.1,3.2,2.7,3.2s2.4-1.1,2.4-3.2v-17.8c0-2.1-1-3.2-2.4-3.2c-1.6,0-2.7,1-2.7,3V170.4z"/>
	<path class="st0" d="M1169.7,223.5c-0.6,0-1.3-0.6-1.3-1.6v-94.8c0-0.6,0.5-1.1,1.1-1.1h20.3c1.1,0,2.4,6.8,3,6.8
		c0.2,0,0.5-0.2,1.1-1c2.9-3.8,5.9-5.9,12.7-5.9c8,0,15.9,6.2,15.9,17.2v79.4c0,0.5-0.3,0.8-0.8,0.8h-22.4c-0.6,0-1.1-0.5-1.1-1.1
		v-66.5c0-2.4-1.3-3.2-2.6-3.2c-1.3,0-2.6,0.8-2.6,3.2v66.7c0,0.6-0.3,1-1.1,1h-22.2V223.5z"/>
	<path class="st0" d="M1228.2,152.3c0-19.2,14.8-26.4,28-26.4c18.3,0,28.9,14.2,28.9,30.1v9.9c0,0.8-0.6,1.4-1.4,1.4h-27.2
		c-0.6,0-1,0.5-1,1.3v25.5c0,2.6,1.1,3.5,2.6,3.5c1.1,0,2.6-1,2.6-3.4v-9.9c0-0.6,0.5-1.3,1.4-1.3l21,1.1c1,0.2,1.6,0.8,1.6,1.8
		v10.6c0,20.8-14.3,27-29.3,27c-17.4,0-27.3-12.4-27.3-30.9v-40.3L1228.2,152.3L1228.2,152.3z M1255.6,157.8c0,0.5,0.5,0.8,1,0.8
		c3.7,0,4.3,0,4.3-0.8c0-10.4-0.2-11.6-2.7-11.6c-1.3,0-2.4,1-2.4,3.4L1255.6,157.8L1255.6,157.8z"/>
	<path class="st0" d="M1290.6,127.2c0-0.8,0.3-1.3,1-1.3h22.9c1,0,2.1,5.2,2.9,5.2c0.3,0,0.6-0.3,1-1.1c1.6-3.9,5.2-4.1,10.2-4.1
		c0.5,0,1,0.5,1,1.1v23.5c0,0.6-0.3,1.1-1.1,1.1c-8.3,0-11.6,4.4-11.6,17.5v52.8c0,0.8-0.6,1.4-1.4,1.4h-23.7
		c-0.6,0-1.1-0.5-1.1-1.3L1290.6,127.2L1290.6,127.2L1290.6,127.2z"/>
	<path class="st0" d="M1366.1,159.7c-0.8,0.2-1.3-0.5-1.3-1.4c0-5.1-1.1-7.6-3.5-7.6c-1.3,0-2.4,1.1-2.4,2.9
		c0,3.4,4.9,8.3,13.8,16.4c9.6,8.4,13.7,15.4,13.7,25.9c0,14-7,27.7-26.9,27.7c-10.8,0-25.5-6-25.5-33.4c0-0.8,0.5-1.4,1.1-1.4
		l17.7-1.1c0.6,0,1.1,0.5,1.3,1.1c0.3,5.9,2.2,9.4,4.8,9.4c1.4,0,2.2-1.1,2.2-2.7c0-3.9-6.2-10-15.3-17.7
		c-6.7-5.4-12.5-14.2-12.5-26.4c0-14.5,11.6-25.3,26.1-25.3c19.5,0,27.8,15.1,27.8,31.2c0,0.8-0.8,1.4-1.6,1.4L1366.1,159.7z"/>
</g>
<g>
	
		<image style="overflow:visible;opacity:0.4;" width="394" height="394" xlink:href="290B8756.png"  transform="matrix(1 0 0 1 498 -24.6)">
	</image>
	<g>
		<circle class="st1" cx="694.8" cy="172.3" r="169.7"/>
	</g>
</g>
<path class="st2" d="M649.6,86.9c5.1,0,10.2,0,15.4,0c1.9,0,3.5-0.6,4.8-2c5-5,9.9-10.1,15-15c10.9-10.6,23.9-17.2,38.9-19.9
	c6-1.1,12.1-1.5,18.2-1c20.1,1.5,37,9.6,50.6,24.4c9.7,10.5,15.7,22.9,18.3,36.9c1,5.4,1.5,10.8,1.2,16.2
	c-0.8,17.7-6.9,33.3-18.5,46.7c-0.3,0.3-0.5,0.6-0.8,0.9c-1.1,1.1-1.6,2.4-1.5,4c0,6,0,12,0,17.9c0,5.4,0,10.8,0,16.2
	c0,4.3,0,8.6-0.1,12.9c-0.5,13.3-8.5,24.6-20.8,29.7c-4.1,1.7-8.3,2.5-12.7,2.5c-9.5,0-19,0-28.5,0c-2,0-3.5,0.6-4.9,2
	c-4.7,4.8-9.5,9.5-14.2,14.3c-11.3,11.3-24.9,18.3-40.6,21c-22.5,3.8-46.8-2.7-64.7-20.1c-8.3-8.1-14.6-17.4-18.4-28.4
	c-1.9-5.3-3.1-10.8-3.7-16.4c-0.5-4.1-0.7-8.3-0.6-12.4c0.4-13,4.2-25,11-35.9c2.4-3.9,5.1-7.5,8.1-11c1.2-1.3,1.7-2.8,1.7-4.5
	c0-15.1,0-30.2,0-45.4c0-9.1,3.1-17,9.5-23.5c5.5-5.6,12.1-8.9,19.8-9.9c1.5-0.2,3-0.3,4.6-0.3C641,86.9,645.3,86.9,649.6,86.9z
	 M659.4,108.7L659.4,108.7c-6.7,0-13.4,0-20.1,0c-1.7,0-3.5,0-5.1,0.3c-5.4,0.9-9.4,5.4-9.9,10.8c-0.1,1.4,0,2.8,0,4.2
	c0,6.2,0,12.4,0,18.6c0,13.7,0,27.4,0,41.1c0,0.7-0.2,1.3-0.7,1.8c-1.2,1.2-2.3,2.4-3.4,3.6c-4.4,5.2-7.8,11-9.9,17.6
	c-2.1,6.6-2.4,13.3-1.5,20c0.8,6.4,2.8,12.5,5.9,18.1c10,17.8,30,27.1,50.5,23.8c9.9-1.6,18.3-6.1,25.4-13c3.1-3,6.2-6.1,9.2-9.1
	c3.3-3.3,6.5-6.5,9.8-9.8c0.5-0.5,1-0.7,1.8-0.7s1.6,0,2.3,0c14.1,0,28.3,0,42.5,0c1,0,2,0,3-0.2c4.3-0.7,7.5-2.9,9.3-6.9
	c0.8-1.9,1.1-3.9,1.1-5.9c0-18.5,0-37.1,0-55.6c0-2.1,0-4.3,0-6.5c0-0.6,0.1-1,0.6-1.4c0.6-0.6,1.2-1.2,1.7-1.8
	c5.2-5.6,9.1-11.8,11.4-19c2.1-6.5,2.6-13.2,1.8-19.9c-0.7-5.9-2.3-11.5-5-16.9C771,84.2,751.3,73,730,76.1
	c-10.2,1.5-19.1,5.7-26.5,12.9c-6.4,6.3-12.7,12.7-19.1,19.1c-0.6,0.6-1.2,0.8-2,0.8C674.8,108.7,667.1,108.7,659.4,108.7z"/>
<path class="st3" d="M753,158.3c0,19.9,0,39.9,0,59.8c0,0.5,0,0.9,0,1.4c-0.1,0.7-0.6,1.2-1.3,1.3c-0.3,0-0.5,0-0.8,0
	c-6.3,0-12.5,0-18.7,0c-1,0-1.6-0.3-2.1-1.2c-0.4-0.8-0.9-1.5-1.4-2.3c-0.5-0.7-0.7-0.7-1.5-0.3c-0.5,0.3-1,0.7-1.5,1
	c-3.3,2.3-7,3-10.9,2.6c-4.8-0.5-8.2-3.1-10.7-7.1c-1.8-3-2.8-6.3-3.6-9.7c-0.9-4.2-1.3-8.5-1.4-12.9c0-13.2-0.1-26.4,0-39.6
	c0-5.6,0.8-11.1,2.9-16.3c1.1-2.8,2.5-5.3,4.6-7.4c4.2-4.2,9.2-5.5,14.9-4.1c1.9,0.5,3.6,1.4,5,2.8c0.3,0.3,0.7,0.7,1.1,0.9
	c0.7,0.5,1.1,0.2,1.3-0.6c0-0.4,0-0.8,0-1.2c0-8.9,0-17.8,0-26.7c0-0.3,0-0.7,0-1c0.1-1.1,0.6-1.6,1.7-1.6c6.9,0,13.7,0,20.6,0
	c1.2,0,1.5,0.3,1.5,1.5c0,0.4,0,0.7,0,1.1C753,118.5,753,138.4,753,158.3z M723.6,172.4c0,6.5,0,13.1,0,19.6c0,0.8,0,1.6,0.2,2.3
	c0.3,1.4,1.6,2.1,2.9,1.4c0.4-0.2,0.8-0.5,1.1-0.7c1-0.9,1.3-2.1,1.3-3.5c0-12.8,0-25.6,0-38.4c0-0.3,0-0.7,0-1
	c-0.1-1.1-0.5-2.1-1.4-2.9c-1.5-1.4-3.5-0.8-3.9,1.2c-0.1,0.7-0.2,1.5-0.2,2.2C723.6,159.2,723.6,165.8,723.6,172.4z"/>
<path class="st3" d="M640.8,184c0-19.5,0-38.9,0-58.4c0-0.5,0-0.9,0-1.4c0-0.8,0.5-1.3,1.4-1.4c0.2,0,0.5,0,0.7,0
	c6.3,0,12.6,0,18.8,0c0.9,0,1.5,0.3,1.9,1.1c0.3,0.7,0.7,1.3,1.1,1.9c0.8,1.3,1.2,1.4,2.4,0.4c0.6-0.4,1.1-0.8,1.6-1.2
	c4-2.2,8.1-2.8,12.6-1.7c2.8,0.7,5,2.3,6.8,4.5c2,2.4,3.3,5.2,4.2,8.1c1.2,3.7,1.8,7.6,2,11.4c0.2,3.5,0.3,7,0.3,10.4
	c0,10,0,19.9,0,29.9c0,3.7,0,7.4-0.6,11.1c-0.7,4.9-1.8,9.5-4.4,13.8c-2.2,3.6-5.1,6.3-9.3,7.5c-5.2,1.4-9.9,0.5-13.9-3.2
	c-0.3-0.3-0.7-0.9-1.2-0.6c-0.3,0.2-0.4,0.8-0.5,1.3c-0.1,0.3,0,0.7,0,1c0,8,0,16.1,0,24.1c0,0.4,0,0.7,0,1.1
	c-0.1,0.9-0.6,1.4-1.4,1.4c-0.3,0-0.5,0-0.8,0c-6.4,0-12.9,0-19.4,0c-1.8,0-2.3-0.2-2.3-2.2C640.8,223.3,640.8,203.7,640.8,184z
	 M670.2,171.3c0-6.8,0-13.7,0-20.5c0-0.6,0-1.2-0.2-1.8c-0.3-1-1.2-1.5-2.2-1.4c-0.8,0.1-1.5,0.4-2.1,1c-0.8,1-1.1,2.1-1,3.3
	c0,12.7,0,25.5,0,38.3c0,0.3,0,0.6,0,0.9c0.1,1.3,0.5,2.6,1.7,3.4c1.4,1,3,0.5,3.5-1.1c0.2-0.7,0.3-1.4,0.3-2.1
	C670.2,184.7,670.2,178,670.2,171.3z"/>
</svg>
