<svg id="Capa_1" enable-background="new 0 0 510.005 510.005" height="512" viewBox="0 0 510.005 510.005" width="512" xmlns="http://www.w3.org/2000/svg"><path d="m339.566 345.036-35.123-17.566c-2.476-1.235-4.013-3.721-4.013-6.486v-3.151l74.462.191h.071c8.071 0 15.716-3.267 20.982-8.968 4.839-5.238 7.192-11.928 6.628-18.835l-12.019-147.167c-2.291-28.13-17.797-54.16-43.667-73.298-5.035-3.722-10.43-7.146-16.094-10.225l10.834-38.886c1.379-4.945.39-10.126-2.715-14.214-3.1-4.087-7.824-6.431-12.956-6.431-.001 0-.002 0-.003 0l-7.97.001c-4.142.001-7.5 3.358-7.499 7.501s3.358 7.5 7.501 7.499l7.97-.001c.42 0 .762.169 1.015.502.174.229.352.608.211 1.114l-12.389 44.467c-.149.54-.65.918-1.221.918l-122.669.016c-.57 0-1.073-.378-1.227-.934l-12.396-44.451c-.141-.503.038-.883.212-1.112.253-.333.594-.502 1.014-.502l105.48-.013c4.142-.001 7.5-3.358 7.499-7.501-.001-4.142-3.358-7.5-7.501-7.499l-105.48.013c-5.134.001-9.857 2.346-12.96 6.435-3.104 4.088-4.092 9.269-2.712 14.211l11.148 39.974c-33.321 18.781-54.122 47.878-57.37 80.638l-14.641 147.862c-.687 6.952 1.586 13.714 6.399 19.041 5.257 5.817 12.953 9.166 21.115 9.187l74.919.2v3.418c0 2.766-1.537 5.251-4.018 6.489l-35.653 17.827c-48.63 3.769-87.048 44.544-87.048 94.125v52.1c0 10.19 8.295 18.48 18.49 18.48h36.33c4.143 0 7.5-3.357 7.5-7.5s-3.357-7.5-7.5-7.5h-36.33c-1.925 0-3.49-1.562-3.49-3.48v-52.1c0-43.787 35.623-79.41 79.41-79.41h5.165c7.162 6.24 14.632 14.689 21.877 22.892 16.636 18.833 33.837 38.307 53.112 38.312h.008c18.861 0 35.024-18.807 52.134-38.715 6.847-7.968 13.905-16.175 20.733-22.488h12.577c.017 0 .034.003.051.003.014 0 .028-.003.043-.003h.12c43.787 0 79.41 35.623 79.41 79.41v52.1c0 1.919-1.565 3.48-3.49 3.48h-247.33c-4.143 0-7.5 3.357-7.5 7.5s3.357 7.5 7.5 7.5h247.33c10.195 0 18.49-8.29 18.49-18.48v-52.1c.001-51.506-41.458-93.504-92.756-94.39zm-139.159-78.505c-11.03-11.086-17.083-25.807-17.044-41.447l.163-61.797c22.011-3.876 72.299-15.909 94.151-47.333 6.804 12.703 19.925 29.761 43.442 37.487l-.186 71.996c-.079 32.238-26.331 58.411-58.552 58.408-.047 0-.099 0-.146 0l-20.463-.06c-15.645-.038-30.335-6.166-41.365-17.254zm-31.992-39.104c-7.114-2.679-12.198-9.535-12.198-17.574 0-8.03 5.105-14.905 12.232-17.582l-.086 32.774c-.002.798.029 1.589.052 2.382zm167.604-35.432c2.773.905 5.319 2.443 7.442 4.566 3.551 3.55 5.506 8.268 5.507 13.285 0 5.017-1.954 9.735-5.504 13.286-2.162 2.163-4.762 3.725-7.595 4.623.025-.759.062-1.515.063-2.28zm-206.497 110.37c-3.943-.01-7.597-1.557-10.025-4.244-1.943-2.149-2.867-4.816-2.601-7.507l14.641-147.86c2.749-27.745 20.748-52.618 49.658-68.968 2.742 2.04 6.122 3.231 9.708 3.231l122.669-.016c4 0 7.74-1.482 10.627-3.971 4.846 2.666 9.465 5.603 13.773 8.787 22.335 16.523 35.7 38.703 37.634 62.456l12.02 147.17c.219 2.676-.739 5.316-2.696 7.435-2.435 2.637-6.064 4.146-9.962 4.146-.012 0-.024 0-.036 0l-74.499-.191v-14.617c16.258-9.868 28.404-25.859 33.223-44.754 17.005-1.746 30.314-16.156 30.313-33.617-.003-16.625-12.074-30.472-27.909-33.264l.06-23.348c.837-.934 1.455-2.088 1.74-3.401.879-4.048-1.689-8.042-5.737-8.922-29.264-6.357-41.242-30.359-45.035-40.387-1.367-3.609-4.739-6.013-8.591-6.122-3.895-.124-7.396 2.111-8.977 5.658-18.026 40.463-97.387 49.811-98.187 49.899-4.114.46-7.079 4.168-6.621 8.283.279 2.506 1.766 4.579 3.812 5.72l-.034 12.745c-15.51 3.058-27.273 16.791-27.273 33.149 0 17.14 12.829 31.329 29.388 33.495 3.191 12.655 9.724 24.271 19.168 33.763 4.44 4.463 9.357 8.277 14.629 11.414v14.04zm163.49 70.361c-13.492 15.699-28.782 33.492-40.758 33.492-.001 0-.003 0-.004 0-12.514-.003-27.439-16.9-41.874-33.241-7.064-7.999-14.334-16.222-21.698-22.88l18.41-9.205c7.595-3.791 12.313-11.42 12.313-19.908v-10.86c0-.006.001-.012.001-.019s-.001-.013-.001-.021v-14.808c7.125 2.281 14.633 3.49 22.329 3.509l20.463.06h.185c8.05 0 15.795-1.32 23.053-3.722v25.861c0 8.488 4.719 16.117 12.309 19.905l16.751 8.377c-.043.09-.091.179-.13.271-7.259 6.798-14.408 15.112-21.349 23.189z"/></svg>