<?xml version="1.0"?>
<svg xmlns="http://www.w3.org/2000/svg" id="Outline" viewBox="0 0 512 512" width="512" height="512"><path d="M280,368H200a40,40,0,0,0,0,80h80a40,40,0,0,0,0-80Zm0,64H200a24,24,0,0,1,0-48h80a24,24,0,0,1,0,48Z"/><path d="M256,16C123.452,16,16,123.452,16,256S123.452,496,256,496,496,388.548,496,256,388.548,16,256,16ZM368,224H312a24,24,0,1,1,0-48H465.274a224.533,224.533,0,0,1-6.843,176H360a24,24,0,1,1,0-48h8a40,40,0,0,0,0-80Zm59.568-112H280a24,24,0,1,1,0-48h91.426A225.1,225.1,0,0,1,427.568,112ZM61.974,144H160a24,24,0,1,1,0,48H128a40,40,0,0,0,0,80h80a24,24,0,1,1,0,48H41.294a224.506,224.506,0,0,1,20.68-176ZM256,480c-95.523,0-177.067-59.8-209.274-144H208a40,40,0,0,0,0-80H128a24,24,0,1,1,0-48h32a40,40,0,0,0,0-80H72.169a224.187,224.187,0,0,1,267.1-80H280a40,40,0,0,0,0,80H439.831a223.719,223.719,0,0,1,18.6,32H312a40,40,0,0,0,0,80h56a24,24,0,1,1,0,48h-8a40,40,0,0,0,0,80h90.026A223.907,223.907,0,0,1,256,480Z"/></svg>
